<?xml version="1.0" encoding="UTF-8"?>
<svg width="618px" height="620px" viewBox="0 0 618 620" version="1.1" xmlns="http://www.w3.org/2000/svg" xmlns:xlink="http://www.w3.org/1999/xlink">
    <!-- Generator: Sketch 52.2 (67145) - http://www.bohemiancoding.com/sketch -->
    <title>Group 2</title>
    <desc>Created with Sketch.</desc>
    <g id="Page-1" stroke="none" stroke-width="1" fill="none" fill-rule="evenodd">
        <g id="Group-2" transform="translate(0.000000, 110.000000)">
            <g id="rustacean-flat-gesture" transform="translate(89.000000, 105.000000)">
                <g id="Group" transform="translate(86.000000, 122.000000)" fill="#A52B00">
                    <path d="M178.126649,0.144941176 C130.655069,0.144941176 87.7493298,5.81864706 55.4379842,15.0627647 L55.4379842,12.9747059 C23.1266385,23.3079412 2.54638259,37.6637059 2.54638259,53.536 C2.54638259,56.0382941 3.10354617,58.5027059 4.08034301,60.9193529 L0.772986807,66.8162353 C0.772986807,66.8162353 -1.88358575,70.2581765 2.81730079,77.5217059 C6.96392348,83.9262941 27.7401187,108.996176 38.7027784,122.124059 C43.4115356,128.855588 46.6078734,133 46.8870765,132.599353 C47.3265937,131.964 43.9608285,119.328588 34.6091794,104.911471 C30.245905,97.1682353 24.9331741,86.9095294 21.8056016,79.3326471 C30.5383641,84.8264118 42.1820475,89.81 55.4379842,94.0989412 L55.4379842,94.0334706 C87.7493298,103.278824 130.655069,108.951294 178.126649,108.951294 C232.457763,108.951294 281.203156,101.520588 313.928749,89.8079412 L313.928749,19.2899412 C281.203156,7.57647059 232.457763,0.144941176 178.126649,0.144941176" id="Path"></path>
                </g>
                <g id="Group" transform="translate(406.000000, 140.000000)" fill="#A52B00">
                    <path d="M42.1730769,47.8918429 L36.6190481,36.3631 C36.6484038,35.9256143 36.6703173,35.4873 36.6703173,35.0477429 C36.6703173,21.9778571 23.1067115,9.93374286 0.286942308,0.288757143 L0.286942308,69.8067286 C10.9339904,65.3059286 19.5728558,60.2847857 25.7503846,54.8771143 C23.9319808,62.2029286 17.7139327,77.0227571 12.7561154,87.4445286 C4.60802885,102.350943 1.65674038,115.3272 2.03547115,115.969343 C2.27693269,116.374514 5.05663462,112.077957 9.15610577,105.115057 C18.6954904,91.495 36.7720288,65.4927714 40.3848558,58.8695857 C44.4777115,51.3614857 42.1730769,47.8918429 42.1730769,47.8918429" id="Path"></path>
                </g>
                <g id="Group" transform="translate(46.000000, 0.000000)" fill="#F74C00">
                    <path d="M434.514692,187.934627 L397.940899,161.079391 C397.597098,159.884091 397.253297,158.690029 396.898726,157.504638 L408.911877,140.15689 C410.138376,138.392223 410.385664,136.09865 409.589123,134.086252 C408.791754,132.083763 407.047482,130.648164 404.984262,130.296387 L384.669768,126.860776 C383.883582,125.259198 383.05846,123.682392 382.230438,122.119212 L390.764986,102.642633 C391.642714,100.65831 391.457973,98.3527643 390.293191,96.5521757 C389.134624,94.7425037 387.165431,93.6859327 385.067003,93.7680966 L364.451373,94.5150044 C363.383933,93.1293646 362.299924,91.756937 361.193134,90.4084568 L365.930959,69.5330249 C366.411038,67.4141025 365.805865,65.1944363 364.324208,63.6543777 C362.851663,62.1200996 360.711398,61.4850835 358.675931,61.9821962 L338.59547,66.9033646 C337.294826,65.7576105 335.97347,64.6271332 334.63596,63.5193646 L335.358771,42.0877775 C335.436644,39.9184832 334.421809,37.8569517 332.679609,36.652981 C330.938236,35.4415783 328.727969,35.2590835 326.823394,36.1591713 L308.089971,45.0370102 C306.582217,44.174082 305.065351,43.3194114 303.531501,42.4924041 L300.221485,21.3741962 C299.88514,19.2350425 298.504137,17.4171127 296.570154,16.5872152 C294.641969,15.7523631 292.432116,16.0228023 290.739207,17.2932474 L274.037522,29.7842372 C272.393077,29.2400556 270.741175,28.717757 269.068563,28.2185798 L261.869454,8.19203807 C261.137945,6.15032504 259.449592,4.65114202 257.391757,4.22958712 C255.340136,3.81174817 253.229695,4.5198448 251.806856,6.10366911 L237.749125,21.7813001 C236.049174,21.5868316 234.348395,21.4092914 232.64306,21.2614788 L221.787234,3.03098389 C220.687071,1.18456515 218.745217,0.0611068814 216.652173,0.0611068814 C214.5641,0.0611068814 212.618104,1.18456515 211.527468,3.03098389 L200.669157,21.2614788 C198.962993,21.4092914 197.254344,21.5868316 195.557293,21.7813001 L181.497491,6.10366911 C180.073824,4.5198448 177.955513,3.81174817 175.910933,4.22958712 C173.853926,4.6569224 172.164331,6.15032504 171.434893,8.19203807 L164.230399,28.2185798 C162.562343,28.717757 160.909613,29.2433587 159.261026,29.7842372 L142.564726,17.2932474 C140.867261,16.0182606 138.657822,15.7486471 136.725081,16.5872152 C134.798967,17.4171127 133.412579,19.2350425 133.078719,21.3741962 L129.766218,42.4924041 C128.233611,43.3194114 126.716331,44.1695403 125.204021,45.0370102 L106.472254,36.1591713 C104.570165,35.2553675 102.349956,35.4415783 100.617282,36.652981 C98.8771526,37.8569517 97.8602474,39.9184832 97.9389488,42.0877775 L98.6580313,63.5193646 C97.3246635,64.6271332 96.0057934,65.7576105 94.6989355,66.9033646 L74.6217886,61.9821962 C72.5817649,61.4887994 70.4439858,62.1200996 68.9677128,63.6543777 C67.4827412,65.1944363 66.8804682,67.4141025 67.3584758,69.5330249 L72.0867744,90.4084568 C70.9895109,91.7623045 69.9038455,93.1293646 68.8397194,94.5150044 L48.2236749,93.7680966 C46.1430578,93.7069898 44.1572967,94.7425037 42.9950009,96.5521757 C41.8302199,98.3527643 41.6541773,100.65831 42.5203071,102.642633 L51.0610682,122.119212 C50.2313896,123.682392 49.40751,125.259198 48.6146967,126.860776 L28.3014455,130.296387 C26.2378114,130.643622 24.4976815,132.078395 23.6953412,134.086252 C22.8979716,136.09865 23.1568578,138.392223 24.3742445,140.15689 L36.390709,157.504638 C36.2979242,157.810586 36.2125953,158.119836 36.1202246,158.426609 L2.14564929,194.397918 C2.14564929,194.397918 -3.05692891,198.465242 4.51911848,208.023927 C11.2045972,216.455438 45.5238019,249.880489 63.6495678,267.392152 C71.3055592,276.282378 76.5495592,281.787777 77.0975697,281.311309 C77.9624569,280.554905 73.4230417,264.380574 58.3438493,245.402758 C46.7208919,228.375821 31.6359005,202.187807 35.1729081,199.169209 C35.1729081,199.169209 39.1966218,194.077933 47.2697308,190.413171 C47.5650682,190.648928 46.9644521,190.179892 47.2697308,190.413171 C47.2697308,190.413171 217.643397,268.752193 375.680823,191.73853 C393.7341,188.511013 404.662828,198.150211 404.662828,198.150211 C408.431798,200.328589 398.671993,227.256492 390.646519,245.081122 C379.730632,265.32195 378.130094,281.116015 379.055871,281.663499 C379.639504,282.011148 383.611441,275.987578 389.276286,266.400817 C403.254073,246.985757 429.678697,209.97398 434.514692,200.984249 C439.998524,190.791373 434.514692,187.934627 434.514692,187.934627" id="Path"></path>
                </g>
                <g id="Group" transform="translate(268.000000, 202.000000)" fill="#000000">
                    <path d="M54.9903846,35.8473103 C55.6415865,35.292 55.9826923,34.9622069 55.9826923,34.9622069 L0.310096154,29.7868966 C45.7503462,-30.2068966 82.1209038,18.1932414 85.9950385,23.5361379 L85.9950385,35.8473103 L54.9903846,35.8473103 Z" id="Path"></path>
                </g>
                <g id="Group" transform="translate(0.000000, 46.000000)" fill="#F74C00">
                    <path d="M108,125.898254 C108,125.898254 62.2047023,107.989099 54.4633282,88.714293 C54.4633282,88.714293 108.21229,45.7666901 43.902,0.147414085 L42.1587481,58.2919183 C42.1587481,58.2919183 23.1037557,39.8262338 23.9446718,7.49078873 C23.9446718,7.49078873 -35.3205344,36.1363268 34.0340153,86.8198563 C34.0340153,86.8198563 36.3737405,114.02438 98.7420916,146.869149 L108,125.898254 Z" id="Path"></path>
                </g>
                <g id="Group" transform="translate(289.000000, 138.000000)" fill="#000000">
                    <path d="M6.65486726,8.71643077 C6.65486726,8.71643077 23.7512212,-9.97961538 40.8484071,8.71643077 C40.8484071,8.71643077 54.2816726,33.6449077 40.8484071,46.1076923 C40.8484071,46.1076923 18.8665487,63.5575846 6.65486726,46.1076923 C6.65486726,46.1076923 -7.99915044,32.3975077 6.65486726,8.71643077" id="Path"></path>
                </g>
                <g id="Group" transform="translate(296.000000, 141.000000)" fill="#FFFFFF">
                    <path d="M19,13.00325 C19,20.1219687 14.8244468,25.8935625 9.67382979,25.8935625 C4.52402128,25.8935625 0.34806383,20.1219687 0.34806383,13.00325 C0.34806383,5.88209375 4.52402128,0.1096875 9.67382979,0.1096875 C14.8244468,0.1096875 19,5.88209375 19,13.00325" id="Path"></path>
                </g>
                <g id="Group" transform="translate(210.000000, 139.000000)" fill="#000000">
                    <path d="M9.84615385,3.28924812 C9.84615385,3.28924812 38.7725128,-9.62086466 46.6678974,19.195 C46.6678974,19.195 54.9382564,52.781391 22.9132308,54.6770301 C22.9132308,54.6770301 -17.9241026,46.7487594 9.84615385,3.28924812" id="Path"></path>
                </g>
                <g id="Group" transform="translate(214.000000, 141.000000)" fill="#FFFFFF">
                    <path d="M20,13.5008182 C20,20.8939091 15.56125,26.8899545 10.0858333,26.8899545 C4.61208333,26.8899545 0.1725,20.8939091 0.1725,13.5008182 C0.1725,6.10527273 4.61208333,0.110863636 10.0858333,0.110863636 C15.56125,0.110863636 20,6.10527273 20,13.5008182" id="Path"></path>
                </g>
                <g id="Group" transform="translate(270.000000, 179.000000)" fill="#F74C00">
                    <path d="M138.310992,0.0789249012 C138.310992,0.0789249012 132.232327,24.1851383 94.4263592,49.5167431 L83.8247185,51.9905455 C83.8247185,51.9905455 49.5293727,-10.2783241 0.941753351,59.891668 C0.941753351,59.891668 16.0845362,51.1137391 56.6790188,61.8031304 C56.6790188,61.8031304 38.0049705,90.259668 0.387683646,89.3853281 C0.387683646,89.3853281 36.4364826,132.444206 91.2930992,70.2485059 C91.2930992,70.2485059 149.282563,47.9213913 153.985137,0.0789249012 L138.310992,0.0789249012 Z" id="Path"></path>
                </g>
            </g>
            <g id="macarons-svgrepo-com" transform="translate(101.056411, 91.104799) rotate(-18.000000) translate(-101.056411, -91.104799) translate(17.056411, 22.604799)">
                <g id="XMLID_1577_" transform="translate(37.000000, 0.000000)">
                    <path d="M65.8218056,0 L29.1781944,0 C13.0635556,0 0,12.2121143 0,28.3509857 L0,46.0845571 C0,62.2234286 13.0635556,74 29.1781944,74 L65.8218056,74 C81.9369722,74 95,62.2234286 95,46.0845571 L95,28.3509857 C95,12.2121143 81.9369722,0 65.8218056,0 Z" id="XMLID_1578_" fill="#91DC5A"></path>
                    <path d="M47.1896667,0 L29.1781944,0 C13.0635556,0 0,12.2121143 0,28.3509857 L0,46.0845571 C0,62.2234286 13.0635556,74 29.1781944,74 L47.1896667,74 L47.1896667,0 Z" id="XMLID_1579_" fill="#64C37D"></path>
                    <rect id="XMLID_1580_" fill="#C2FB3B" x="0" y="28.2939" width="95" height="17.4116714"></rect>
                    <rect id="XMLID_1581_" fill="#91DC5A" x="0" y="28.2939" width="47.1896667" height="17.4116714"></rect>
                </g>
                <g id="XMLID_1582_" transform="translate(73.000000, 63.000000)">
                    <path d="M65.8218056,0 L29.1781944,0 C13.0630278,0 0,12.2121143 0,28.3509857 L0,46.0845571 C0,62.2234286 13.0630278,74 29.1781944,74 L65.8218056,74 C81.9369722,74 95,62.2234286 95,46.0840286 L95,28.3504571 C95,12.2121143 81.9369722,0 65.8218056,0 Z" id="XMLID_1583_" fill="#FF5023"></path>
                    <path d="M47.1896667,0 L29.1781944,0 C13.0630278,0 0,12.2121143 0,28.3509857 L0,46.0845571 C0,62.2234286 13.0630278,74 29.1781944,74 L47.1896667,74 L47.1896667,0 Z" id="XMLID_1584_" fill="#BD3C1A"></path>
                    <rect id="XMLID_1585_" fill="#FF734F" x="0" y="28.2939" width="95" height="17.4116714"></rect>
                    <rect id="XMLID_1586_" fill="#FF5023" x="0" y="28.2939" width="47.1896667" height="17.4116714"></rect>
                </g>
                <g id="XMLID_1587_" transform="translate(0.000000, 63.000000)">
                    <path d="M65.8218056,0 L29.1781944,0 C13.0630278,0 0,12.2121143 0,28.3509857 L0,46.0845571 C0,62.2234286 13.0630278,74 29.1781944,74 L65.8218056,74 C81.9369722,74 95,62.2234286 95,46.0840286 L95,28.3504571 C95,12.2121143 81.9369722,0 65.8218056,0 Z" id="XMLID_1588_" fill="#FFAD41"></path>
                    <path d="M47.5,0 L29.1781944,0 C13.0630278,0 0,12.2121143 0,28.3509857 L0,46.0845571 C0,62.2234286 13.0630278,74 29.1781944,74 L47.5,74 L47.5,0 Z" id="XMLID_1589_" fill="#FF9811"></path>
                    <rect id="XMLID_1590_" fill="#FFE98F" x="0" y="28.2939" width="95" height="17.4116714"></rect>
                    <rect id="XMLID_1591_" fill="#FFCE8D" x="0" y="28.2939" width="47.5" height="17.4116714"></rect>
                </g>
            </g>
        </g>
    </g>
</svg>